<?xml version="1.0" encoding="iso-8859-1"?>
<!-- Generator: Adobe Illustrator 18.0.0, SVG Export Plug-In . SVG Version: 6.00 Build 0)  -->
<!DOCTYPE svg PUBLIC "-//W3C//DTD SVG 1.1//EN" "http://www.w3.org/Graphics/SVG/1.1/DTD/svg11.dtd">
<svg version="1.1" id="Capa_1" xmlns="http://www.w3.org/2000/svg" xmlns:xlink="http://www.w3.org/1999/xlink" x="0px" y="0px"
	 viewBox="0 0 202.491 202.491" style="enable-background:new 0 0 202.491 202.491;" xml:space="preserve">
<g>
	<path style="fill:#1D1D1B;" d="M183.75,25.745h-11.181V7.5c0-4.142-3.358-7.5-7.5-7.5H37.623c-2.899,0-7.5,2.148-7.5,7.911
		l0,17.834H18.741c-4.142,0-7.5,3.358-7.5,7.5v37.806c0,40.386,31.099,73.628,70.604,77.082v18.359h-6.811
		c-15.599,0-28.289,12.69-28.289,28.289v0.21c0,4.142,3.358,7.5,7.5,7.5h94.202c4.142,0,7.5-3.358,7.5-7.5v-0.21
		c0-15.598-12.69-28.289-28.289-28.289h-6.813v-18.374c39.41-3.549,70.403-36.749,70.403-77.067V33.245
		C191.25,29.103,187.892,25.745,183.75,25.745z M45.123,15h112.446v29.183c0,31.001-25.222,56.223-56.223,56.223
		S45.123,75.184,45.123,44.183C45.123,44.183,45.123,25.727,45.123,15z M26.241,71.051V40.745h3.881l0,3.438
		c0,32.51,21.904,59.983,51.723,68.487v20.412C50.623,129.686,26.241,103.162,26.241,71.051z M138.765,187.491H63.928
		c2.378-3.611,6.469-5.999,11.106-5.999h52.625C132.296,181.492,136.387,183.879,138.765,187.491z M96.845,166.492v-25.543v-25.7
		c1.49,0.094,2.988,0.157,4.5,0.157s3.011-0.063,4.5-0.157v51.243H96.845z M176.25,71.051c0,32.041-24.279,58.506-55.403,61.996
		V112.67c29.819-8.504,51.723-35.976,51.723-68.487v-3.438h3.681V71.051z"/>
</g>
<g>
</g>
<g>
</g>
<g>
</g>
<g>
</g>
<g>
</g>
<g>
</g>
<g>
</g>
<g>
</g>
<g>
</g>
<g>
</g>
<g>
</g>
<g>
</g>
<g>
</g>
<g>
</g>
<g>
</g>
</svg>
