<?xml version="1.0" encoding="iso-8859-1"?>
<!-- Generator: Adobe Illustrator 18.0.0, SVG Export Plug-In . SVG Version: 6.00 Build 0)  -->
<!DOCTYPE svg PUBLIC "-//W3C//DTD SVG 1.1//EN" "http://www.w3.org/Graphics/SVG/1.1/DTD/svg11.dtd">
<svg version="1.1" id="Capa_1" xmlns="http://www.w3.org/2000/svg" xmlns:xlink="http://www.w3.org/1999/xlink" x="0px" y="0px"
	 viewBox="0 0 217.846 217.846" style="enable-background:new 0 0 217.846 217.846;" xml:space="preserve">
<g>
	<circle style="fill:#1D1D1B;" cx="49.687" cy="105.537" r="7.651"/>
	<circle style="fill:#1D1D1B;" cx="49.687" cy="133.29" r="7.651"/>
	<circle style="fill:#1D1D1B;" cx="63.564" cy="119.414" r="7.651"/>
	<circle style="fill:#1D1D1B;" cx="35.811" cy="119.414" r="7.651"/>
	<circle style="fill:#1D1D1B;" cx="168.158" cy="105.537" r="7.651"/>
	<circle style="fill:#1D1D1B;" cx="168.158" cy="133.29" r="7.651"/>
	<circle style="fill:#1D1D1B;" cx="182.035" cy="119.414" r="7.651"/>
	<circle style="fill:#1D1D1B;" cx="154.282" cy="119.414" r="7.651"/>
	<path style="fill:#1D1D1B;" d="M168.158,69.727h-51.735V56.245c0-4.142-3.357-7.5-7.5-7.5s-7.5,3.358-7.5,7.5v13.482H49.688
		C22.29,69.727,0,92.016,0,119.414c0,27.398,22.29,49.688,49.688,49.688c17.239,0,32.45-8.829,41.364-22.198
		c5.385-3.248,11.528-4.979,17.874-4.979c6.343,0,12.483,1.729,17.867,4.975c8.914,13.372,24.126,22.202,41.366,22.202
		c27.397,0,49.688-22.29,49.688-49.688C217.846,92.016,195.556,69.727,168.158,69.727z M49.688,154.101
		C30.561,154.101,15,138.541,15,119.414c0-19.126,15.561-34.687,34.688-34.687c19.126,0,34.687,15.561,34.687,34.687
		C84.374,138.541,68.813,154.101,49.688,154.101z M108.925,126.924c-3.492,0-6.943,0.369-10.309,1.079
		c0.489-2.792,0.759-5.659,0.759-8.59c0-13.485-5.407-25.726-14.159-34.687h47.415c-8.751,8.961-14.159,21.202-14.159,34.687
		c0,2.93,0.27,5.797,0.758,8.589C115.865,127.292,112.416,126.924,108.925,126.924z M168.158,154.101
		c-19.126,0-34.687-15.561-34.687-34.688c0-19.126,15.561-34.687,34.687-34.687c19.127,0,34.688,15.561,34.688,34.687
		C202.846,138.541,187.285,154.101,168.158,154.101z"/>
	<path style="fill:#1D1D1B;" d="M113.673,92.593h-9.5c-2.485,0-4.5,2.015-4.5,4.5s2.015,4.5,4.5,4.5h9.5c2.485,0,4.5-2.015,4.5-4.5
		S116.158,92.593,113.673,92.593z"/>
</g>
<g>
</g>
<g>
</g>
<g>
</g>
<g>
</g>
<g>
</g>
<g>
</g>
<g>
</g>
<g>
</g>
<g>
</g>
<g>
</g>
<g>
</g>
<g>
</g>
<g>
</g>
<g>
</g>
<g>
</g>
</svg>
