<?xml version="1.0" encoding="iso-8859-1"?>
<!-- Generator: Adobe Illustrator 18.0.0, SVG Export Plug-In . SVG Version: 6.00 Build 0)  -->
<!DOCTYPE svg PUBLIC "-//W3C//DTD SVG 1.1//EN" "http://www.w3.org/Graphics/SVG/1.1/DTD/svg11.dtd">
<svg version="1.1" id="Capa_1" xmlns="http://www.w3.org/2000/svg" xmlns:xlink="http://www.w3.org/1999/xlink" x="0px" y="0px"
	 viewBox="0 0 187.331 187.331" style="enable-background:new 0 0 187.331 187.331;" xml:space="preserve">
<g>
	<path style="fill:#1D1D1B;" d="M93.665,26.723c-22.268,0-40.384,18.116-40.384,40.383s18.116,40.384,40.384,40.384
		s40.384-18.116,40.384-40.384S115.933,26.723,93.665,26.723z M93.665,92.49c-13.997,0-25.384-11.387-25.384-25.384
		s11.387-25.383,25.384-25.383s25.384,11.387,25.384,25.383S107.662,92.49,93.665,92.49z"/>
	<path style="fill:#1D1D1B;" d="M93.665,0C56.662,0,26.559,30.104,26.559,67.106c0,11.684,2.395,21.512,7.535,30.922l40.184,77.507
		c3.77,7.276,11.198,11.795,19.388,11.795c8.188,0,15.615-4.518,19.384-11.789l40.226-77.587c4.905-9.461,7.497-20.129,7.497-30.848
		C160.772,30.104,130.668,0,93.665,0z M139.958,91.051l-40.227,77.587c-1.18,2.277-3.505,3.692-6.066,3.692
		s-4.886-1.415-6.067-3.693L47.372,91.051l-0.081-0.152c-3.965-7.233-5.732-14.571-5.732-23.792C41.559,38.375,64.934,15,93.665,15
		s52.106,23.375,52.106,52.106C145.772,75.552,143.816,83.609,139.958,91.051z"/>
</g>
<g>
</g>
<g>
</g>
<g>
</g>
<g>
</g>
<g>
</g>
<g>
</g>
<g>
</g>
<g>
</g>
<g>
</g>
<g>
</g>
<g>
</g>
<g>
</g>
<g>
</g>
<g>
</g>
<g>
</g>
</svg>
